<?xml width="150" height="150" version="1.0" standalone="no"?><!DOCTYPE svg PUBLIC "-//W3C//DTD SVG 1.1//EN" "http://www.w3.org/Graphics/SVG/1.1/DTD/svg11.dtd"><svg t="1634285370791" class="icon" viewBox="0 0 1024 1024" version="1.1" xmlns="http://www.w3.org/2000/svg" p-id="834" xmlns:xlink="http://www.w3.org/1999/xlink" width="200" height="200"><defs><style type="text/css"></style></defs><path d="M918.528 967.888593a28.444444 28.444444 0 0 1-28.444444-28.444445 377.287111 377.287111 0 0 0-260.380445-359.405037 28.48237 28.48237 0 0 1-5.499259-51.617185 223.838815 223.838815 0 0 0 110.667852-192.587852c0-122.88-99.953778-222.833778-222.852741-222.833778-122.88 0-222.833778 99.953778-222.833778 222.833778 0 78.942815 42.401185 152.727704 110.629926 192.587852a28.444444 28.444444 0 0 1-5.499259 51.617185A377.268148 377.268148 0 0 0 133.935407 939.444148a28.444444 28.444444 0 1 1-56.888888 0c0-170.666667 98.512593-322.920296 249.950814-393.841778a281.012148 281.012148 0 0 1-94.72-209.768296c0-154.244741 125.496889-279.722667 279.722667-279.722667S791.74163 181.608296 791.74163 335.834074c0 80.725333-35.309037 157.165037-94.738963 209.768296a434.005333 434.005333 0 0 1 249.969777 393.841778 28.444444 28.444444 0 0 1-28.444444 28.444445z" fill="#707070" p-id="835"></path></svg>